UML legend:

table = class
#pkey
+index

@startuml
    class items <<(I,blue)>> {
        Items table.
        ==
        #name
    }

    'user "1" -- "0..*" docs

    class stock <<(S,olive)>> {
        Stock available at main warehouse.
        ==
        #id : int(10)
        +uid : int(10) unsigned
        remoteip : int(10) unsigned
        useragent : varchar(255)
        data : longtext -- serialized session data
        +lastseen : int(11)
    }

    'session "0..*" -- "1" user
    
    class docs <<(F,brown)>> {
        Documents storage example.
        ==
        #id : int(10)
        #fid : int(10) -- link to a file
        +aunthorid : int(10)
        +created : int(11)
    }
    
    class files <<(F,brown)>> {
        File storage example.
        ==
        #id
        +docId : int(10)
        title : varchar(255)
        path : varchar(255)
        hash : int(32) unsigned
    }

    'files "1" -- "1..*" docs

@enduml